# xmcd CD database file
#
# Track frame offsets:
#	150
#	21102
#	36094
#	58202
#	77494
#	95614
#	116688
#	134770
#	154689
#	173252
#	194563
#	212800
#	233923
#	251874
#	267359
#
# Disc length: 3812 seconds
#
# Revision: 0
# Processed by: cddbd v1.5.2PL0 Copyright (c) Steve Scherf et al.
# Submitted via: CDex 1.70beta2
#
DISCID=d40ee20f
DTITLE=Various Artist - 30 Salsas Colombianas Pegaditas Disc 1
DYEAR=2008
DGENRE=Salsa
TTITLE0=Todo Cambio- La Organizacion
TTITLE1=Gotas de Lluvia- Grupo Niche
TTITLE2=A Nuestro Modo-Fruko
TTITLE3=Bendita Tu Luz- La Organizacion 
TTITLE4=Una Noche Mas- Gambino Pampini
TTITLE5=La Cita-Fruko
TTITLE6=Noche de Arreboles- Joe Arroyo
TTITLE7=Kukucha-Ku-Cha- Alfredo De La Fe Y Fruko
TTITLE8=Cambiare por Ti- Orquesta Guayacan
TTITLE9=Un Alto en el Camino- Grupo Niche 
TTITLE10=El Flojo- La Organizacion
TTITLE11=Pegaso-Fruko
TTITLE12=Ella y Tu- Joe Arroyo
TTITLE13=Hombre Pobre Hombre Rico-Fruko
TTITLE14=Teresa- La Organizacion
EXTD=YEAR: 2008
EXTT0=
EXTT1=
EXTT2=
EXTT3=
EXTT4=
EXTT5=
EXTT6=
EXTT7=
EXTT8=
EXTT9=
EXTT10=
EXTT11=
EXTT12=
EXTT13=
EXTT14=
PLAYORDER=
